<svg width="100" height="32" viewBox="0 0 100 32" fill="none" xmlns="http://www.w3.org/2000/svg">
<g clip-path="url(#clip0_2984_1457)">
<path d="M15.9993 0C24.8352 0 31.9986 7.16349 31.9986 15.9993C31.9986 24.8352 24.8352 31.9986 15.9993 31.9986C7.16349 32 0 24.8365 0 15.9993C0 7.16349 7.16349 0 15.9993 0Z" fill="#1E30CA"/>
<mask id="mask0_2984_1457" style="mask-type:luminance" maskUnits="userSpaceOnUse" x="8" y="6" width="17" height="21">
<path d="M24.8321 6.87109H8.08984V26.4029H24.8321V6.87109Z" fill="white"/>
</mask>
<g mask="url(#mask0_2984_1457)">
<path fill-rule="evenodd" clip-rule="evenodd" d="M17.4701 9.3112H8.08984V7.21875H17.5417L17.5768 7.22145C20.7512 7.43353 22.9423 9.9677 23.2557 12.6802C23.4151 14.0567 23.0963 15.5075 22.171 16.7408C21.2443 17.9755 19.7705 18.917 17.751 19.3979C17.6713 19.4168 17.5903 19.4263 17.5092 19.4263H16.6366L22.175 25.9832C22.3155 26.1494 22.1966 26.402 21.9805 26.402H19.8975C19.8219 26.402 19.7516 26.3696 19.703 26.3115L13.8876 19.4263H8.09255V17.3338H15.2763C16.6758 17.3338 18.1387 17.2798 19.3261 16.5395C19.834 16.2221 20.2177 15.8601 20.4986 15.4859C21.0768 14.7146 21.2821 13.8108 21.1795 12.9206C20.9701 11.1078 19.5139 9.46519 17.4741 9.31255L17.4701 9.3112ZM8.08984 12.4505H16.1125C16.6906 12.4505 17.1594 12.9193 17.1594 13.4974C17.1594 14.0756 16.6906 14.5443 16.1125 14.5443H8.08984V12.4519V12.4505Z" fill="white"/>
<path d="M8.64234 7.77515L8.08984 7.22266V9.3151L8.64234 8.76261C8.91521 8.48974 8.91521 8.04802 8.64234 7.7765V7.77515Z" fill="#1E30CA"/>
<path d="M8.64234 13.0056L8.08984 12.4531V14.5456L8.64234 13.9917C8.91521 13.7189 8.91521 13.2771 8.64234 13.0056Z" fill="#1E30CA"/>
<path d="M8.64234 17.8884L8.08984 17.3359V19.4284L8.64234 18.8759C8.91521 18.603 8.91521 18.1613 8.64234 17.8898V17.8884Z" fill="#1E30CA"/>
</g>
<path d="M80.5935 26.4007C79.0265 26.4007 77.6162 26.0576 76.364 25.3727C75.1104 24.6676 74.1216 23.6788 73.3975 22.4063C72.6924 21.1338 72.3398 19.6641 72.3398 17.9999C72.3398 16.3356 72.7019 14.8659 73.4273 13.5934C74.1716 12.3209 75.1793 11.3416 76.4531 10.6554C77.7256 9.95023 79.1454 9.59766 80.7123 9.59766C82.2793 9.59766 83.699 9.95023 84.9715 10.6554C86.244 11.3402 87.2436 12.3196 87.9677 13.5934C88.712 14.8659 89.0835 16.3356 89.0835 17.9999C89.0835 19.6641 88.7012 21.1338 87.938 22.4063C87.1937 23.6788 86.1751 24.6676 84.8824 25.3727C83.6099 26.0576 82.1793 26.4007 80.5935 26.4007ZM80.661 23.1992C81.4053 23.1992 82.101 23.0236 82.7467 22.6711C83.4127 22.2982 83.9071 21.5269 84.2988 20.8029C84.6906 20.0788 84.8526 19.0387 84.8526 18.0012C84.8526 16.4545 84.3029 14.8862 83.4802 14.0635C82.6778 13.222 81.689 12.8005 80.5138 12.8005C79.3385 12.8005 78.3497 13.222 77.5473 14.0635C76.7638 14.8862 76.5112 16.4545 76.5112 18.0012C76.5112 19.5479 76.9597 21.1244 77.7243 21.9659C78.5078 22.7886 79.4871 23.1992 80.6624 23.1992H80.661Z" fill="#1E30CA"/>
<path d="M62.2497 26.4437C60.6827 26.4437 59.2725 26.1006 58.0202 25.4157C56.7667 24.7106 55.7778 23.7218 55.0538 22.4493C54.3487 21.1768 53.9961 19.7071 53.9961 18.0428C53.9961 16.3786 54.3581 14.9089 55.0835 13.6364C55.8278 12.3639 56.8356 11.3846 58.1094 10.6983C59.3819 9.99319 60.8016 9.64062 62.3686 9.64062C63.9356 9.64062 65.3553 9.99319 66.6278 10.6983C67.9003 11.3832 68.8999 12.3626 69.6239 13.6364C70.3682 14.9089 70.7397 16.3786 70.7397 18.0428C70.7397 19.7071 70.3574 21.1768 69.5942 22.4493C68.8499 23.7218 67.8314 24.7106 66.5386 25.4157C65.2661 26.1006 63.8356 26.4437 62.2497 26.4437ZM62.3173 23.2422C63.0616 23.2422 63.7572 23.0666 64.4029 22.714C65.0689 22.3412 65.5633 21.5699 65.9551 20.8458C66.3468 20.1218 66.5089 19.0816 66.5089 18.0442C66.5089 16.4975 65.9591 14.9292 65.1365 14.1065C64.3341 13.2649 63.3452 12.8435 62.17 12.8435C60.9948 12.8435 60.006 13.2649 59.2036 14.1065C58.4201 14.9292 58.1675 16.4975 58.1675 18.0442C58.1675 19.5909 58.616 21.1673 59.3805 22.0089C60.164 22.8316 61.1434 23.2422 62.3186 23.2422H62.3173Z" fill="#1E30CA"/>
<path d="M48.3279 26.3965L43.7013 18.0808H41.7182V26.3965H37.5117V5.63281H45.3831C47.0054 5.63281 48.3873 5.92324 49.5288 6.5041C50.6702 7.0647 51.5213 7.83603 52.0832 8.81809C52.6641 9.77988 52.9545 10.6539 52.9545 11.8561C52.9545 13.238 52.5547 14.4903 51.7523 15.6115C50.9512 16.7124 49.8692 17.6607 48.2874 18.0821L53.1949 26.3979H48.3279V26.3965ZM41.7182 14.7321H45.2331C46.3746 14.7321 47.2256 14.4619 47.7875 13.9216C48.3481 13.361 48.6291 12.9273 48.6291 11.9466C48.6291 10.9659 48.1766 10.5701 47.8294 10.1986C47.2729 9.60157 46.6204 9.60157 45.2345 9.60157H41.7196V14.7334L41.7182 14.7321Z" fill="#1E30CA"/>
<path d="M96.1021 12.838V21.6577C96.1021 22.2183 96.2317 22.6289 96.4925 22.8896C96.7734 23.1301 97.2341 23.2503 97.8744 23.2503H99.8277V26.4342H97.1841C93.6395 26.4342 91.8658 25.0726 91.8658 21.6279V12.838H89.8828V9.6379H91.8658V5.63672H96.1021V9.6379H99.8277V12.838H96.1021Z" fill="#1E30CA"/>
</g>
<defs>
<clipPath id="clip0_2984_1457">
<rect width="99.8296" height="32" fill="white"/>
</clipPath>
</defs>
</svg>